<svg width="2200" height="2200" viewBox="0 0 2200 2200" fill="none" xmlns="http://www.w3.org/2000/svg">
<g clip-path="url(#clip0_1063_33)">
<path d="M1913.54 1043.13C1912.76 1031.45 1911.67 1019.51 1910.2 1006.62C1902.46 938.602 1885.27 869.757 1859.11 801.993C1832.43 732.898 1797.8 668.57 1756.18 610.794C1751.77 604.671 1743.77 602.875 1737.15 606.517C1730.55 610.159 1727.79 617.877 1730.61 624.871C1759.63 696.913 1777.94 760.111 1785.03 812.712C1795.06 887.067 1782.26 937.797 1746.99 963.492C1735.18 972.102 1721.81 967.381 1699.2 958.302C1678.77 950.096 1653.35 939.882 1623.07 944.021C1621 944.303 1619.15 945.449 1617.98 947.173C1616.81 948.898 1616.42 951.038 1616.92 953.064C1624.81 985.23 1638.11 1015.54 1656.45 1043.16C1662.13 1051.72 1671.49 1063.69 1683.76 1072.09C1696.57 1080.85 1710.01 1083.76 1722.64 1080.49L1723.25 1080.33C1725.99 1079.61 1732.94 1077.79 1735.56 1078.32C1735.43 1079.19 1734.82 1080.76 1734.59 1081.35C1719.54 1120.68 1700.45 1158.63 1677.86 1194.14C1676.49 1196.3 1675.1 1198.46 1673.71 1200.63C1657.78 1225.45 1641.31 1251.12 1641.34 1281.33C1641.35 1294.17 1644.48 1306.49 1647.5 1318.41C1650.87 1331.69 1654.06 1344.24 1652.95 1356.78C1651.39 1374.33 1641.49 1391.91 1622.68 1410.52C1619.55 1413.63 1616.21 1416.74 1612.98 1419.76C1603.79 1428.34 1594.29 1437.21 1586.85 1448.07C1581.59 1455.78 1577.65 1464.12 1573.84 1472.18C1571.47 1477.2 1569.23 1481.94 1566.69 1486.56C1548.33 1519.91 1512.18 1544.38 1472.37 1550.42C1467.29 1551.19 1462.26 1549.93 1458.2 1546.88C1454.25 1543.9 1451.72 1539.57 1451.09 1534.67C1448.95 1518.3 1442.81 1501.94 1436.87 1486.12C1430.04 1467.94 1422.99 1449.14 1422.26 1430.77C1421.51 1412.18 1427.07 1394.13 1432.95 1375.02C1434.78 1369.06 1436.68 1362.9 1438.35 1356.76C1447.77 1322.24 1445.69 1294.72 1432.18 1274.98C1429.42 1270.94 1426.24 1267.33 1423.17 1263.83C1418.29 1258.27 1413.67 1253.02 1411.56 1246.94C1409.11 1239.89 1409.72 1230.87 1410.31 1222.14C1411.29 1207.74 1412.4 1191.42 1399.44 1180.84C1394.26 1176.59 1388.04 1174.71 1383.21 1173.55C1354.26 1166.59 1325.18 1173.86 1297.06 1180.9C1294.33 1181.58 1291.6 1182.27 1288.88 1182.93C1261.05 1189.77 1229.19 1194.97 1203.93 1181.6C1187.59 1172.95 1164.64 1153.5 1154.1 1084.81C1149.27 1053.32 1146.48 1020.29 1158.59 992.072C1162.92 981.985 1168.99 972.773 1175.42 963.019C1182.79 951.848 1190.41 940.296 1195.28 927.181C1197.07 922.327 1198.47 917.345 1199.82 912.527C1202.63 902.485 1205.28 893.001 1211.1 885.825C1220.87 873.783 1238.14 869.758 1256.47 866.384C1276.05 862.795 1295.6 859.193 1315.16 855.592C1332.96 852.313 1350.76 849.035 1368.58 845.765C1375.07 844.561 1381.5 848.054 1384.23 854.253C1390.89 869.381 1403.31 881.232 1418.32 886.774C1439.76 894.626 1464.98 889.026 1481.09 872.855C1481.93 872.015 1482.75 871.141 1483.58 870.263C1486.24 867.446 1488.75 864.785 1491.29 864.029C1493.75 863.307 1497.18 864.09 1500.79 864.911C1509.03 866.853 1517.24 870.34 1525.93 874.032C1535.22 877.983 1544.84 882.069 1556.04 885.059C1563.68 887.11 1571.87 885.829 1578.52 881.551C1585.05 877.35 1589.52 870.585 1590.78 863.032C1591.13 860.998 1591.25 858.541 1591.16 855.537C1590.3 825.686 1568.23 799.943 1538.68 794.324C1502.83 787.521 1453.47 773.022 1421.93 742.583C1415.36 736.23 1404.76 733.489 1394.25 735.429C1382.8 737.56 1374.19 747.179 1374.23 757.851C1374.25 759.69 1374.51 761.345 1374.74 762.805C1374.93 763.973 1375.1 765.077 1375.06 765.832C1374.98 767.684 1373.02 769.723 1370.78 770.286C1368.09 770.964 1364.69 770.09 1361.91 768.009C1360.42 766.888 1358.96 765.366 1357.41 763.754C1355.25 761.501 1352.79 758.946 1349.65 756.887C1336.66 748.459 1320.21 753.261 1309.67 761.756C1302.81 767.273 1297.76 774.06 1292.86 780.623C1290.79 783.411 1288.82 786.045 1286.74 788.566C1271.71 806.76 1250.67 816.93 1231.87 815.109C1221.21 814.091 1210.62 808.282 1203.56 799.569C1197.76 792.427 1195.07 784.124 1195.97 776.181C1196.76 769.136 1200.49 762.992 1205.44 760.543C1209.07 758.771 1213.81 758.513 1218.84 758.239L1220.79 758.129C1227.94 757.702 1236.1 756.568 1242.44 751.424C1246.8 747.91 1249.65 742.481 1250.07 736.9C1250.42 732.131 1248.94 727.692 1245.85 724.337C1243.17 721.504 1239.96 720.094 1237.38 718.962C1236.64 718.639 1235.94 718.334 1235.3 718.011C1231.29 716.027 1228.22 711.775 1227.08 706.636C1225.94 701.492 1226.93 696.336 1229.74 692.829C1233.72 687.84 1240.51 685.164 1247.7 682.332C1254.61 679.608 1261.76 676.791 1267.85 671.566C1274.77 665.594 1278.71 657.903 1282.52 650.465C1284.62 646.35 1286.61 642.462 1289.01 639.054C1295.32 630.099 1303.08 624.931 1312.11 623.684C1319.55 622.596 1325.01 616.489 1325.1 609.163C1325.1 609.144 1325.1 609.094 1325.1 609.054C1325.21 600.612 1321.76 592.992 1315.83 588.65C1311.06 585.175 1305.42 584.262 1301.28 583.593C1296.88 582.889 1290.84 581.926 1284.94 584.022C1283.79 584.426 1282.72 584.926 1281.59 585.456C1276.85 587.682 1271.94 589.983 1262.63 583.227C1249.66 573.809 1247.84 552.349 1248.81 541.162C1250.99 516.361 1259.6 492.424 1273.69 471.941C1277.86 465.891 1281.76 461.451 1285.96 457.969C1335.73 416.778 1435.11 459.162 1522.79 496.557C1568.34 515.986 1611.37 534.338 1644.5 539.773C1655.41 541.557 1665.73 536.345 1670.78 526.481C1675.83 516.616 1674.03 505.196 1666.2 497.387C1586.91 418.313 1378.42 284.488 1100 284.488C999.71 284.488 901.785 302.476 808.94 337.952C719.251 372.223 636.916 421.741 564.222 485.132C547.082 500.083 530.358 515.951 514.513 532.297C506.809 540.244 505.303 552.49 510.851 562.075C514.06 567.62 520.186 571.596 527.238 572.71C536.187 574.126 545.479 570.978 553.398 563.85C586.238 534.294 620.437 510.66 655.045 493.604C698.747 472.066 743.323 460.966 787.533 460.613C787.751 460.611 787.966 460.611 788.184 460.611C806.719 460.611 828.672 466.906 835.271 479.09C842.777 492.945 834.486 505.347 826.208 513.312C811.728 527.246 795.97 536.08 779.287 545.432C771.421 549.842 763.286 554.402 754.956 559.674C720.797 581.347 701.988 611.499 704.644 640.328C705.964 654.665 713.228 668.805 726.234 682.354C735.746 692.263 749.534 696.922 763.117 694.821C776.699 692.719 788.433 684.108 794.505 671.788C795.933 668.892 797.21 665.903 798.301 662.905C799.546 659.488 800.696 655.998 801.808 652.624C805.479 641.483 808.946 630.96 815.622 622.72C824.674 611.519 840.092 607.078 851.434 605.324C886.89 599.836 912.715 613.509 925.052 628.13C933.781 638.503 938.098 653.762 936.319 667.953C934.835 679.79 929.372 689.638 920.941 695.679C916.018 699.202 910.199 701.616 904.039 704.171C898.395 706.512 892.559 708.933 887.061 712.379C872.847 721.281 863.09 739.384 871.364 754.265C872.506 756.32 873.865 758.051 875.064 759.578C878.148 763.503 878.977 764.558 877.114 768.653C875.521 772.163 872.514 775.261 868.612 777.394C854.147 785.397 838.671 791.762 822.62 796.307C817.092 797.865 811.459 799.274 805.495 800.766C776.271 808.076 743.149 816.361 727.348 844.233C721.609 854.371 719.191 865.567 716.852 876.395C714.281 888.298 711.853 899.541 705.305 908.216C699.382 916.061 690.255 921.675 680.591 927.618C666.418 936.335 651.762 945.349 646.503 962.463C644.393 969.339 644.361 976.133 644.331 982.703C644.31 987.18 644.291 991.408 643.606 995.379C643.285 997.263 642.618 999.233 641.677 1001.07C640.081 1004.19 637.117 1004.61 635.916 1004.65C633.224 1004.73 630.827 1003.42 629.478 1001.15C621.427 987.551 612.302 972.144 598.172 961.446C584.401 951.031 565.188 947.47 550.358 952.585C538.641 956.626 530.377 965.692 527.089 978.097C525.091 985.568 525.145 993.77 527.251 1002.48C534.638 1032.91 559.263 1052.05 583.077 1070.56C587.733 1074.18 592.549 1077.92 597.063 1081.64C611.165 1093.18 663.016 1149.43 696.494 1219.13C697.352 1220.91 698.895 1222.28 700.774 1222.91C702.655 1223.55 704.708 1223.4 706.474 1222.49C709.113 1221.14 711.756 1219.85 714.345 1218.64C723.947 1214.13 734.618 1212.39 745.194 1213.61C800.775 1220.12 850.846 1239.31 889.995 1269.1C897.753 1275.01 898.563 1280.12 899.789 1287.85C901.197 1296.74 902.951 1307.8 916.047 1320.05C940.37 1342.79 967.111 1341.33 992.977 1339.91C1012.72 1338.84 1033.13 1337.72 1054.44 1346.55C1086.26 1359.74 1086.12 1383.59 1084.76 1387.45C1083.07 1392.31 1080.04 1396.87 1076.84 1401.7C1075.35 1403.96 1073.8 1406.3 1072.36 1408.71C1060.49 1428.57 1056.97 1451.36 1053.57 1473.41C1052.7 1479.02 1051.8 1484.83 1050.79 1490.41C1044.81 1523.11 1032.73 1544.63 1014.91 1554.34C1013.8 1554.94 1012.63 1555.52 1011.39 1556.13C1007.59 1558 1003.29 1560.13 999.636 1563.62C993.657 1569.32 991.14 1576.86 988.92 1583.52L988.41 1585.05C983.993 1598.16 976.849 1609.97 969.287 1622.47C965.572 1628.61 961.731 1634.96 958.245 1641.47C954.645 1648.19 948.876 1653.57 942.766 1659.26C928.615 1672.43 911.002 1688.83 917.156 1728.49C921.738 1758.01 934.393 1778.09 942.767 1791.38C945.118 1795.1 947.934 1799.57 949.01 1802.13C948.394 1802.32 947.531 1802.53 946.342 1802.73C926.374 1802.39 903.807 1784.29 881.031 1750.34C860.197 1719.28 845.725 1684.85 841.785 1675.03C829.333 1644.04 819.094 1611.99 809.885 1581.97C801.181 1553.56 787.699 1517.75 760.487 1492.9C750.603 1483.88 739.334 1476.67 728.435 1469.69C714.686 1460.89 701.699 1452.58 691.629 1441.1C675.717 1422.97 668.342 1397.66 661.839 1375.35C657.47 1360.23 653.997 1345.69 659.426 1334.07C660.848 1331.01 662.967 1327.96 665.209 1324.72C670.058 1317.73 675.554 1309.8 674.963 1299.67C674.511 1291.78 670.436 1285.53 666.84 1280.02C664.294 1276.12 661.89 1272.43 661.155 1268.78C659.661 1261.47 664.878 1253.29 669.541 1247.7C671.47 1245.36 674.328 1242.71 678.037 1239.84C679.645 1238.6 680.667 1236.74 680.857 1234.71C681.047 1232.69 680.391 1230.67 679.044 1229.15C651.176 1197.64 613.648 1154.87 609.804 1150.24C587.492 1123.45 557.043 1103.18 519.303 1090.01L518.289 1089.65C511.954 1087.45 505.97 1085.36 502.571 1081.35C499.917 1078.18 498.639 1073.51 497.56 1069C494.912 1057.86 493.283 1045.95 491.707 1034.44C488.387 1010.16 484.953 985.062 471.864 963.352C460.309 944.176 443.822 913.713 434.086 870.75C421.547 815.412 424 755.809 441.378 693.595C444.217 683.429 439.35 672.87 429.805 668.488C419.999 663.986 408.375 667.544 402.766 676.766C359.768 747.454 327.949 823.925 308.192 904.052C297.556 947.118 290.412 991.499 286.957 1035.96C285.321 1056.94 284.492 1078.49 284.492 1100C284.492 1121.51 285.321 1143.05 286.957 1164.02C290.411 1208.47 297.556 1252.86 308.191 1295.94C340.633 1427.54 406.446 1550.22 498.515 1650.72C519.219 1673.32 541.325 1694.89 564.217 1714.85C636.906 1778.25 719.241 1827.77 808.935 1862.04C901.775 1897.51 999.701 1915.5 1099.99 1915.5C1261.37 1915.5 1417.38 1868.45 1551.14 1779.46L1552.41 1778.61C1552.92 1778.27 1553.42 1777.93 1553.99 1777.56C1602.2 1745.19 1647.1 1707.54 1687.44 1665.66C1727.83 1623.73 1763.78 1577.41 1794.31 1527.99C1825.23 1477.93 1850.72 1424.45 1870.07 1369.05C1889.88 1312.35 1903.37 1253.25 1910.19 1193.39C1911.66 1180.47 1912.75 1168.52 1913.53 1156.88C1914.83 1138.18 1915.49 1119.05 1915.49 1100C1915.5 1080.96 1914.84 1061.82 1913.54 1043.13ZM1898.86 1155.89C1898.1 1167.32 1897.02 1179.05 1895.58 1191.73C1888.89 1250.51 1875.63 1308.54 1856.19 1364.21C1837.19 1418.61 1812.16 1471.11 1781.8 1520.27C1751.82 1568.8 1716.51 1614.29 1676.85 1655.46C1637.24 1696.6 1593.14 1733.57 1545.86 1765.31C1545.32 1765.67 1544.78 1766.02 1544.25 1766.38L1543.02 1767.2C1411.66 1854.6 1258.47 1900.79 1100 1900.79C1001.51 1900.79 905.354 1883.13 814.196 1848.3C726.126 1814.65 645.278 1766.02 573.898 1703.77C551.417 1684.17 529.708 1662.98 509.373 1640.79C418.966 1542.1 354.342 1421.64 322.487 1292.43C312.044 1250.12 305.029 1206.54 301.636 1162.89C300.03 1142.3 299.216 1121.14 299.216 1100.01C299.216 1078.88 300.03 1057.72 301.637 1037.11C305.03 993.453 312.045 949.876 322.488 907.588C341.887 828.914 373.129 753.831 415.348 684.424C416.572 682.412 418.724 681.275 420.949 681.275C421.866 681.275 422.794 681.468 423.675 681.872C426.609 683.219 428.098 686.489 427.216 689.647C409.174 754.238 406.661 816.267 419.746 874.012C429.951 919.048 447.191 950.909 459.272 970.958C470.795 990.073 473.876 1012.6 477.138 1036.44C478.761 1048.3 480.439 1060.57 483.256 1072.42C484.681 1078.38 486.596 1085.2 491.329 1090.84C497.342 1097.95 505.904 1100.93 513.458 1103.56L514.459 1103.91C549.647 1116.19 577.925 1134.95 598.497 1159.65C602.252 1164.18 635.374 1201.94 663.04 1233.26C661.176 1234.99 659.577 1236.67 658.221 1238.31C648.469 1250.02 644.609 1261.26 646.742 1271.71C648.029 1278.11 651.479 1283.4 654.523 1288.07C657.49 1292.62 660.052 1296.55 660.281 1300.53C660.576 1305.6 657.123 1310.58 653.125 1316.35C650.628 1319.95 648.046 1323.67 646.098 1327.86C637.887 1345.44 643.799 1365.9 647.716 1379.46C654.652 1403.26 662.512 1430.23 680.576 1450.81C692.017 1463.86 706.503 1473.13 720.512 1482.1C731.366 1489.04 741.619 1495.61 750.573 1503.78C775.154 1526.23 787.669 1559.67 795.825 1586.29C805.13 1616.62 815.484 1649.03 828.139 1680.52C832.213 1690.67 847.188 1726.29 868.819 1758.54C895.042 1797.64 921.318 1817.46 946.92 1817.46C947.301 1817.46 947.681 1817.43 948.058 1817.37C953.17 1816.57 960.292 1814.79 963.104 1808.61C966.423 1801.3 961.726 1793.85 955.225 1783.54C947.498 1771.28 935.822 1752.76 931.706 1726.25C926.749 1694.3 938.823 1683.05 952.804 1670.03C959.524 1663.78 966.473 1657.3 971.228 1648.43C974.532 1642.25 978.271 1636.07 981.887 1630.09C989.529 1617.46 997.431 1604.4 1002.36 1589.75L1002.89 1588.19C1004.73 1582.66 1006.47 1577.45 1009.8 1574.27C1011.83 1572.34 1014.79 1570.88 1017.92 1569.33C1019.22 1568.68 1020.57 1568.02 1021.94 1567.27C1043.87 1555.33 1058.45 1530.36 1065.27 1493.06C1066.32 1487.27 1067.24 1481.37 1068.12 1475.66C1071.45 1454.06 1074.6 1433.66 1085 1416.27C1086.27 1414.14 1087.65 1412.05 1089.12 1409.84C1092.68 1404.47 1096.37 1398.91 1098.66 1392.32C1102.83 1380.46 1098.89 1349.05 1060.09 1332.96C1035.68 1322.85 1012.57 1324.12 992.183 1325.23C967.318 1326.59 945.845 1327.76 926.108 1309.32C916.703 1300.51 915.604 1293.58 914.332 1285.56C912.945 1276.8 911.373 1266.89 898.918 1257.4C857.673 1226.01 805.111 1205.82 746.899 1199C733.595 1197.47 720.178 1199.66 708.116 1205.32C707.577 1205.58 707.035 1205.83 706.49 1206.09C671.574 1136.5 621.287 1082.45 606.406 1070.27C601.748 1066.44 596.852 1062.63 592.117 1058.95C570.298 1041.99 547.735 1024.46 541.562 999.027C540.041 992.737 539.958 986.977 541.318 981.892C543.372 974.142 548.03 968.965 555.165 966.505C565.394 962.977 579.436 965.726 589.302 973.189C601.124 982.139 609.107 995.618 616.826 1008.65C620.888 1015.51 628.404 1019.6 636.379 1019.37C644.319 1019.12 651.2 1014.79 654.786 1007.78C656.399 1004.63 657.553 1001.2 658.118 997.872C659.008 992.71 659.031 987.662 659.054 982.78C659.08 977.025 659.106 971.59 660.578 966.792C664.206 954.985 675.913 947.784 688.307 940.161C698.707 933.765 709.462 927.15 717.056 917.09C725.558 905.826 728.448 892.448 731.243 879.51C733.445 869.311 735.526 859.677 740.158 851.495C752.847 829.114 781.43 821.964 809.073 815.05C814.879 813.598 820.882 812.096 826.629 810.476C843.771 805.622 860.295 798.827 875.712 790.296C882.362 786.66 887.622 781.135 890.519 774.749C896.087 762.516 890.176 754.992 886.645 750.496C885.701 749.295 884.809 748.16 884.236 747.127C880.387 740.205 886.632 730.024 894.882 724.857C899.34 722.063 904.364 719.979 909.685 717.773C916.339 715.013 923.22 712.158 929.517 707.652C941.324 699.192 948.928 685.746 950.928 669.793C953.236 651.39 947.775 632.276 936.314 618.657C917.277 596.097 883.897 585.419 849.193 590.791C828.968 593.918 813.826 601.551 804.192 613.473C795.824 623.802 791.765 636.118 787.84 648.028C786.714 651.446 785.651 654.675 784.484 657.879C783.574 660.379 782.507 662.873 781.315 665.292C777.303 673.432 769.853 678.898 760.876 680.288C751.896 681.676 743.145 678.719 736.859 672.173C726.219 661.089 720.314 649.924 719.306 638.988C716.137 604.577 751.832 579.098 762.841 572.113C770.833 567.056 778.793 562.593 786.491 558.278C804.021 548.451 820.578 539.169 836.42 523.926C853.079 507.896 857.38 489.003 848.219 472.092C838.284 453.748 810.497 445.732 787.424 445.909C740.98 446.28 694.255 457.89 648.548 480.415C612.728 498.068 577.405 522.463 543.562 552.923C539.004 557.026 534.027 558.896 529.541 558.186C526.342 557.681 524.339 556 523.595 554.714C521.327 550.797 521.941 545.794 525.087 542.549C540.647 526.496 557.07 510.913 573.901 496.232C645.285 433.984 726.132 385.359 814.199 351.709C905.361 316.876 1001.52 299.213 1100 299.213C1373.63 299.213 1578.12 430.338 1655.82 507.817C1659.72 511.708 1659.34 516.55 1657.69 519.784C1656.03 523.017 1652.33 526.153 1646.89 525.262C1615.51 520.114 1573.28 502.101 1528.56 483.031C1437.02 443.987 1333.27 399.734 1276.59 446.643C1271.38 450.955 1266.47 456.502 1261.58 463.604C1246.04 486.179 1236.56 512.556 1234.16 539.891C1233.6 546.308 1231.94 579.133 1253.99 595.145C1270.33 607.001 1282.16 601.455 1287.84 598.788C1288.63 598.419 1289.38 598.07 1289.85 597.904C1292.23 597.059 1295.81 597.63 1298.95 598.131C1301.9 598.608 1305.24 599.149 1307.15 600.541C1309.18 602.021 1310.44 605.299 1310.38 608.893C1310.38 608.903 1310.38 608.916 1310.38 608.933C1310.33 608.995 1310.2 609.102 1310.04 609.125C1297.05 610.918 1285.62 618.337 1276.98 630.591C1273.98 634.852 1271.66 639.386 1269.42 643.771C1266.11 650.234 1262.99 656.338 1258.25 660.419C1254.06 664.019 1248.35 666.269 1242.3 668.651C1234.03 671.909 1224.66 675.601 1218.25 683.652C1212.61 690.693 1210.59 700.233 1212.72 709.826C1214.84 719.414 1220.69 727.208 1228.74 731.187C1229.68 731.663 1230.59 732.062 1231.47 732.446C1232.97 733.105 1234.53 733.787 1235.09 734.383C1235.42 734.74 1235.42 735.436 1235.39 735.819C1235.28 737.317 1234.38 739.023 1233.19 739.988C1230.07 742.516 1224.97 743.145 1219.92 743.447L1218.04 743.552C1212.06 743.877 1205.28 744.246 1198.95 747.345C1189.45 752.042 1182.7 762.464 1181.35 774.537C1180 786.427 1183.83 798.611 1192.13 808.844C1201.63 820.559 1215.96 828.379 1230.46 829.762C1254.43 832.081 1279.7 820.187 1298.09 797.939C1300.4 795.132 1302.57 792.23 1304.66 789.422C1309.2 783.327 1313.5 777.569 1318.9 773.221C1325.3 768.061 1335.16 765.035 1341.61 769.22C1343.33 770.349 1345.02 772.1 1346.8 773.953C1348.59 775.822 1350.63 777.941 1353.07 779.783C1359.42 784.541 1367.39 786.325 1374.38 784.562C1382.9 782.418 1389.37 774.834 1389.76 766.535C1389.87 764.282 1389.55 762.285 1389.28 760.522C1389.11 759.466 1388.95 758.469 1388.95 757.753C1388.93 754.366 1392.67 750.697 1396.93 749.904C1402.75 748.831 1408.54 750.112 1411.71 753.173C1445.87 786.138 1498.11 801.611 1535.93 808.787C1558.75 813.125 1575.79 832.967 1576.45 855.982C1576.53 858.461 1576.4 859.827 1576.27 860.579C1575.67 864.139 1573.65 867.195 1570.56 869.183C1567.39 871.22 1563.49 871.829 1559.85 870.851C1549.63 868.126 1540.51 864.247 1531.68 860.496C1522.4 856.552 1513.63 852.826 1504.09 850.578C1499.27 849.481 1493.29 848.114 1487.11 849.925C1480.76 851.818 1476.57 856.256 1472.88 860.171C1472.15 860.945 1471.42 861.717 1470.67 862.468C1458.72 874.468 1439.27 878.785 1423.4 872.971C1412.29 868.871 1402.68 859.66 1397.7 848.332C1392.2 835.852 1379.12 828.849 1365.91 831.301C1348.1 834.57 1330.3 837.848 1312.49 841.127C1292.94 844.727 1273.39 848.328 1253.81 851.918C1237.83 854.859 1213.67 859.304 1199.67 876.564C1191.94 886.106 1188.74 897.524 1185.65 908.566C1184.32 913.311 1183.06 917.792 1181.48 922.075C1177.2 933.605 1170.37 943.961 1163.14 954.925C1156.64 964.787 1149.91 974.985 1145.06 986.276C1131.5 1017.89 1134.4 1053.39 1139.55 1087.05C1145.08 1123.09 1157.06 1173.45 1197.05 1194.62C1226.68 1210.29 1261.87 1204.73 1292.39 1197.23C1295.12 1196.56 1297.87 1195.87 1300.63 1195.18C1327.03 1188.58 1354.33 1181.75 1379.76 1187.86C1383.07 1188.66 1387.24 1189.88 1390.12 1192.24C1396.72 1197.63 1396.61 1206.76 1395.63 1221.15C1394.94 1231.35 1394.22 1241.9 1397.66 1251.78C1400.71 1260.57 1406.51 1267.17 1412.12 1273.55C1415.02 1276.86 1417.77 1279.99 1420.03 1283.3C1431 1299.31 1432.38 1322.73 1424.15 1352.9C1422.54 1358.8 1420.68 1364.85 1418.88 1370.7C1412.9 1390.15 1406.71 1410.26 1407.55 1431.37C1408.38 1452.1 1415.86 1472.02 1423.09 1491.29C1429 1507.03 1434.58 1521.89 1436.49 1536.58C1437.65 1545.43 1442.22 1553.27 1449.35 1558.64C1456.59 1564.09 1465.54 1566.34 1474.57 1564.97C1518.82 1558.26 1559.06 1530.94 1579.58 1493.66C1582.34 1488.64 1584.78 1483.47 1587.15 1478.47C1590.88 1470.58 1594.4 1463.12 1599 1456.38C1605.51 1446.87 1614.02 1438.93 1623.02 1430.52C1626.33 1427.43 1629.74 1424.24 1633.04 1420.98C1654.42 1399.82 1665.72 1379.25 1667.61 1358.09C1668.93 1343.05 1665.29 1328.69 1661.76 1314.8C1658.83 1303.24 1656.06 1292.33 1656.05 1281.33C1656.03 1255.43 1671.31 1231.62 1686.09 1208.59C1687.5 1206.39 1688.9 1204.21 1690.28 1202.04C1713.4 1165.7 1732.93 1126.87 1748.32 1086.64C1749.41 1083.82 1751.24 1079.1 1749.71 1073.81C1748.79 1070.72 1745.44 1063.55 1734.26 1063.55C1734.2 1063.55 1734.14 1063.55 1734.08 1063.55C1729.11 1063.59 1723.79 1064.98 1719.52 1066.1L1718.93 1066.26C1695.6 1072.3 1674.58 1043.88 1668.7 1035.02C1652.9 1011.22 1641.04 985.297 1633.38 957.865C1656.23 956.907 1676.03 964.859 1693.71 971.962C1715.81 980.835 1736.67 989.215 1755.65 975.392C1839.98 913.964 1796.04 747.97 1744.3 619.49C1785.16 676.225 1819.16 739.409 1845.37 807.3C1871.09 873.895 1887.98 941.517 1895.57 1008.29C1897.02 1020.95 1898.09 1032.67 1898.86 1044.14C1900.13 1062.51 1900.78 1081.31 1900.78 1100.01C1900.78 1118.72 1900.14 1137.51 1898.86 1155.89Z" fill="#93BFEE"/>
</g>
<defs>
<clipPath id="clip0_1063_33">
<rect width="2200" height="2200" fill="white"/>
</clipPath>
</defs>
</svg>
