<svg width="800" height="800" viewBox="0 0 800 800" fill="none" xmlns="http://www.w3.org/2000/svg">
<path d="M765.5 510.476C759.525 502.451 751.175 496.501 741.5 493.676L741.175 493.601C737.05 492.426 732.25 491.626 727.3 491.401H727.15C721.9 491.101 716.675 491.126 711.425 491.126H607.675L470.55 246.926C453.125 265.176 441.05 288.701 436.975 314.876L436.875 315.601C435.775 322.301 435.15 330.051 435.15 337.926C435.15 364.176 442.125 388.801 454.3 410.051L453.925 409.351L618.7 702.801C621.325 707.476 623.925 712.151 626.8 716.651C629.475 720.951 632.4 724.651 635.675 728.051L635.65 728.026C642.525 735.026 651.625 739.801 661.8 741.226L662.05 741.251C663.8 741.501 665.85 741.626 667.9 741.626C676.375 741.626 684.275 739.276 691.025 735.201L690.825 735.326C699.55 730.051 706.275 722.251 710.1 712.976L710.225 712.676C712.475 707.301 713.775 701.026 713.775 694.476C713.775 690.251 713.225 686.126 712.225 682.226L712.3 682.576C710.925 677.376 709.175 672.876 706.975 668.626L707.15 669.001C704.8 664.176 702.15 659.526 699.525 654.876L661.525 587.201H711.375C716.625 587.201 721.85 587.226 727.075 586.926C732.15 586.701 736.95 585.901 741.525 584.626L741.075 584.726C751.075 581.801 759.45 575.851 765.325 567.951L765.4 567.826C771.275 559.926 774.8 549.976 774.8 539.226C774.8 528.476 771.275 518.501 765.3 510.476L765.4 510.601L765.5 510.476ZM122.35 604.376L97.6 651.251C95.05 656.101 92.475 660.926 90.15 665.951C88.175 669.976 86.45 674.676 85.225 679.551L85.125 680.051C84.2 683.776 83.675 688.051 83.675 692.426C83.675 699.226 84.95 705.751 87.275 711.726L87.15 711.351C90.9 721.226 97.5 729.326 105.925 734.826L106.1 734.951C112.45 739.076 120.2 741.526 128.55 741.526C130.575 741.526 132.55 741.376 134.475 741.101L134.25 741.126C144.55 739.551 153.475 734.576 160.025 727.401L160.05 727.376C163.225 723.901 166.1 720.026 168.525 715.876L168.7 715.551C171.525 710.851 174.05 706.001 176.625 701.151L212.525 633.151C198.725 612.651 175.625 599.351 149.4 599.351C139.675 599.351 130.375 601.176 121.825 604.526L122.35 604.376ZM300.3 491.201L491.2 146.401C493.825 141.676 496.45 136.976 498.825 132.076C500.85 128.151 502.6 123.576 503.85 118.801L503.95 118.326C504.9 114.701 505.425 110.551 505.425 106.251C505.425 99.6008 504.125 93.2758 501.75 87.4758L501.875 87.8008C497.975 78.1008 491.225 70.2008 482.7 64.9508L482.5 64.8258C475.95 60.8008 468.05 58.4258 459.575 58.4258C457.525 58.4258 455.5 58.5758 453.5 58.8508L453.725 58.8258C443.3 60.3008 434.175 65.1508 427.35 72.2008C424.1 75.6008 421.175 79.4008 418.675 83.4508L418.5 83.7508C415.625 88.3258 413.025 93.0508 410.4 97.7758L398.325 119.576L386.25 97.7758C383.625 93.0508 381.05 88.3008 378.175 83.7508C375.5 79.4008 372.575 75.6258 369.3 72.2008L369.325 72.2258C362.5 65.1508 353.4 60.3008 343.2 58.8508L342.95 58.8258C341.2 58.5758 339.175 58.4508 337.125 58.4508C328.65 58.4508 320.725 60.8258 314 64.9508L314.2 64.8508C305.475 70.2258 298.725 78.1258 294.925 87.5008L294.8 87.8258C292.55 93.3008 291.25 99.6258 291.25 106.276C291.25 110.551 291.8 114.726 292.8 118.676L292.725 118.326C294.1 123.576 295.85 128.151 298.05 132.476L297.875 132.076C300.225 136.951 302.875 141.676 305.5 146.401L344.5 216.826L192.6 491.201H88.5C83.275 491.201 78.025 491.176 72.8 491.501C67.725 491.726 62.925 492.526 58.35 493.851L58.8 493.751C48.775 496.726 40.425 502.751 34.575 510.751L34.475 510.876C28.6 518.901 25.075 528.976 25.075 539.851C25.075 550.726 28.6 560.801 34.575 568.976L34.475 568.826C40.4 576.951 48.75 582.976 58.45 585.851L58.775 585.926C62.9 587.126 67.7 587.926 72.625 588.151H72.775C78 588.451 83.25 588.426 88.475 588.426H497.65C498.775 586.101 499.825 583.301 500.675 580.401L500.775 580.001C502.725 573.926 503.85 566.926 503.85 559.676C503.85 522.501 474.225 492.226 437.3 491.176H437.2L300.3 491.201Z" fill="#1A5798"/>
</svg>
