<svg width="256" height="256" viewBox="0 0 256 256" fill="none" xmlns="http://www.w3.org/2000/svg">
<path d="M157.5 49.3H196.8C204.9 49.3 211.9 52.2 217.7 57.9C223.5 63.6 226.3 70.6 226.3 78.8V216.5C226.3 224.6 223.4 231.6 217.7 237.4C211.9 243.2 205 246 196.8 246H59.2002C51.1002 246 44.1002 243.1 38.3002 237.4C32.5002 231.6 29.7002 224.7 29.7002 216.5V78.8C29.7002 70.7 32.6002 63.7 38.3002 57.9C44.1002 52.1 51.0002 49.3 59.2002 49.3H98.5002V69H59.2002C56.5002 69 54.2002 70 52.2002 71.9C50.3002 73.8 49.3002 76.1 49.3002 78.9V216.6C49.3002 219.3 50.3002 221.6 52.2002 223.6C54.1002 225.5 56.4002 226.5 59.2002 226.5H196.9C199.6 226.5 201.9 225.5 203.9 223.6C205.8 221.7 206.8 219.4 206.8 216.6V78.8C206.8 76.1 205.8 73.8 203.9 71.8C202 69.9 199.7 68.9 196.9 68.9H157.6V49.3H157.5ZM128 10C130.7 10 133 11 135 12.9C136.9 14.8 137.9 17.1 137.9 19.9V143.7L160.4 121.1C162.3 119.2 164.6 118.3 167.4 118.3C170.2 118.3 172.6 119.2 174.4 121.1C176.3 123 177.2 125.3 177.2 128.1C177.2 130.9 176.3 133.2 174.4 135.1L135 174.3C133.1 176.2 130.8 177.1 128 177.1C125.2 177.1 122.9 176.2 121 174.3L81.7002 135C79.8002 133 78.9002 130.7 78.9002 128C78.9002 125.3 79.9002 123 81.8002 121C83.7002 119.1 86.0002 118.1 88.8002 118.1C91.6002 118.1 93.9002 119 95.8002 120.9L118.3 143.5V19.8C118.3 17.1 119.3 14.8 121.2 12.8C123 11 125.3 10 128 10Z" fill="#93BFEE"/>
</svg>
